# xmcd
# Track frame offsets:
# 150
# 16036
# 31455
# 44834
# 58303
# 70581
# 82425
# 96319
# 109025
# 122922
# 135985
# 148999
# 165127
# 178044
# 194950
# 205930
# 221542
# 233896
#
# Disc length: 3297 seconds
# Revision: 0
# Processed by: cddbd v1.5.1PL2 Copyright (c) Steve Scherf et al.
# Submitted via: VisiTrax 2.9.10.228 - For more info visit www.synapsa.com
#
DISCID=140cdf12
DTITLE=Eartha Kitt - I Want To Be Evil
DYEAR=1900
DGENRE=
TTITLE0=I Want To Be Evil
TTITLE1=Santa Baby
TTITLE2=Senor
TTITLE3=C'est Si Bon
TTITLE4=Under The Bridges of Paris
TTITLE5=Mountain High Valley Low
TTITLE6=Smoke Gets In Your Eyes
TTITLE7=Oh John Please Don't Kiss Me
TTITLE8=Let's Do It
TTITLE9=April in Portugal
TTITLE10=African Lullaby
TTITLE11=The blues
TTITLE12=Annie Doesn't Live Here Anymore
TTITLE13=Lilac Wine
TTITLE14=Salangadou
TTITLE15=Angelitos Negroes
TTITLE16=Two Lovers
TTITLE17=My Heart Belongs To Daddy
EXTD=
EXTT0=
EXTT1=
EXTT2=
EXTT3=
EXTT4=
EXTT5=
EXTT6=
EXTT7=
EXTT8=
EXTT9=
EXTT10=
EXTT11=
EXTT12=
EXTT13=
EXTT14=
EXTT15=
EXTT16=
EXTT17=
PLAYORDER=
